<svg width="151" height="35" viewBox="0 0 151 35" fill="none" xmlns="http://www.w3.org/2000/svg">
<path fill-rule="evenodd" clip-rule="evenodd" d="M91.0156 28.0421L93.6261 22.8211L94.0507 23.0333L91.4401 28.2544L91.0156 28.0421Z" fill="#061738"/>
<path d="M41.8295 17.5193C41.8295 17.2307 41.7131 16.9607 41.4804 16.7094C41.2476 16.458 40.9544 16.2299 40.6006 16.0251C40.2561 15.8109 39.786 15.5503 39.1901 15.243C38.4826 14.8706 37.9147 14.5541 37.4864 14.2934C37.0581 14.0234 36.6904 13.7069 36.3832 13.3438C36.0852 12.9807 35.9363 12.5804 35.9363 12.1428C35.9363 11.6773 36.1318 11.1792 36.5228 10.6486C36.9138 10.1086 37.3886 9.65704 37.9472 9.29395C38.5151 8.92155 39.0365 8.73535 39.5113 8.73535C40.0885 8.73535 40.7589 8.80518 41.5223 8.94483C42.2857 9.08448 42.8443 9.23344 43.1981 9.39171V12.1009H42.6674C42.2112 11.3468 41.7085 10.7603 41.1592 10.3413C40.6192 9.92238 40.0513 9.7129 39.4555 9.7129C38.9248 9.7129 38.5012 9.88048 38.1846 10.2156C37.8774 10.5415 37.7238 10.9698 37.7238 11.5004C37.7238 11.8076 37.8402 12.0963 38.0729 12.3662C38.315 12.6269 38.6082 12.8597 38.9527 13.0645C39.3065 13.2693 39.7953 13.5347 40.419 13.8605C41.108 14.205 41.6666 14.5122 42.0948 14.7822C42.5231 15.0429 42.8815 15.3501 43.1701 15.7039C43.4681 16.0484 43.617 16.4394 43.617 16.8769C43.617 17.3424 43.4075 17.8452 42.9886 18.3852C42.5696 18.9158 42.0576 19.3674 41.4524 19.7398C40.8566 20.1029 40.312 20.2844 39.8185 20.2844C39.2134 20.2844 38.4919 20.2146 37.654 20.0749C36.8254 19.9353 36.2295 19.7863 35.8665 19.628V16.9188H36.3971C36.8719 17.6729 37.4119 18.2595 38.0171 18.6784C38.6222 19.0974 39.246 19.3068 39.8884 19.3068C40.2701 19.3068 40.6099 19.2231 40.9078 19.0555C41.2057 18.8879 41.4338 18.6691 41.5921 18.3991C41.7504 18.1198 41.8295 17.8266 41.8295 17.5193Z" fill="#061738"/>
<path d="M55.3922 10.481V15.662C55.3922 16.6395 55.1548 17.4774 54.68 18.1757C54.2145 18.8739 53.6373 19.4 52.9484 19.7537C52.2594 20.0982 51.5844 20.2704 50.9234 20.2704C50.0949 20.2704 49.3501 20.0889 48.689 19.7258C48.0373 19.3534 47.5253 18.846 47.1529 18.2036C46.7898 17.5519 46.6083 16.8211 46.6083 16.0111V10.062L45.1559 9.57325L45.4352 9.01465H49.6806V9.44757L48.3539 10.481V15.3408C48.3539 16.5232 48.6425 17.4448 49.2197 18.1059C49.8062 18.7669 50.6907 19.0974 51.8731 19.0974C52.3106 19.0974 52.7389 18.9577 53.1578 18.6784C53.5861 18.3898 53.9352 17.9709 54.2052 17.4216C54.4845 16.8723 54.6242 16.2252 54.6242 15.4804V10.2994L53.1718 9.57325L53.4511 9.01465H56.7189V9.44757L55.3922 10.481Z" fill="#061738"/>
<path d="M67.4641 10.4949V20.0051H66.696L60.0627 11.6121V18.7064L61.529 19.4465L61.2497 20.0051H57.9819V19.5722L59.2946 18.5388V10.3553L57.8422 9.57325L58.1215 9.01465H60.2302L66.696 17.1981V10.2994L65.2437 9.57325L65.523 9.01465H68.7908V9.46153L67.4641 10.4949Z" fill="#061738"/>
<path d="M79.6698 10.4949V20.0051H78.9018L72.2684 11.6121V18.7064L73.7347 19.4465L73.4554 20.0051H70.1876V19.5722L71.5003 18.5388V10.3553L70.048 9.57325L70.3273 9.01465H72.436L78.9018 17.1981V10.2994L77.4494 9.57325L77.7287 9.01465H80.9965V9.46153L79.6698 10.4949Z" fill="#061738"/>
<path d="M87.9933 18.9298L89.4596 19.4325L89.1803 19.9911H84.9349V19.5582L86.2477 18.5248V16.039L82.6587 10.2436L81.5554 9.57325L81.8347 9.01465H86.0801V9.44757L84.7813 10.453L87.5743 14.9917L90.479 10.453L88.2447 9.57325L88.524 9.01465H92.7693V9.44757L91.6242 10.1458L87.9933 15.8296V18.9298Z" fill="#061738"/>
<path d="M103.648 8.73535C104.142 8.73535 104.71 8.80518 105.352 8.94483C106.004 9.08448 106.479 9.23344 106.777 9.39171V12.1009H106.246C105.389 10.6392 104.254 9.90841 102.839 9.90841C102.224 9.90841 101.661 10.09 101.149 10.453C100.646 10.8068 100.25 11.3049 99.9617 11.9473C99.6731 12.5804 99.5288 13.2926 99.5288 14.0839C99.5288 14.9963 99.6685 15.8296 99.9478 16.5837C100.236 17.3378 100.669 17.9429 101.246 18.3991C101.833 18.8553 102.555 19.0834 103.411 19.0834C104.202 19.0834 105.338 18.4876 106.819 17.2959L107.237 17.9662L104.668 19.9632C104.323 20.0842 103.988 20.1634 103.662 20.2006C103.346 20.2472 103.001 20.2704 102.629 20.2704C101.651 20.2704 100.786 20.033 100.032 19.5582C99.2774 19.0834 98.6909 18.4317 98.272 17.6031C97.853 16.7652 97.6435 15.8156 97.6435 14.7543C97.6435 13.665 97.9601 12.6595 98.5932 11.7378C99.2262 10.8068 100.013 10.076 100.953 9.54532C101.894 9.00534 102.792 8.73535 103.648 8.73535Z" fill="#061738"/>
<path d="M119.992 19.9911H115.747V19.5582L117.059 18.5388L115.984 15.9553H111.292L110.147 18.5946L112.604 19.4325L112.325 19.9911H108.08V19.5582L109.392 18.5248L113.345 9.46153L114.797 8.74932L118.875 18.5807L120.271 19.4325L119.992 19.9911ZM113.694 10.4251L111.571 15.3268H115.733L113.694 10.4251Z" fill="#061738"/>
<path d="M127.283 17.5193C127.283 17.2307 127.167 16.9607 126.934 16.7094C126.701 16.458 126.408 16.2299 126.054 16.0251C125.71 15.8109 125.24 15.5503 124.644 15.243C123.936 14.8706 123.368 14.5541 122.94 14.2934C122.512 14.0234 122.144 13.7069 121.837 13.3438C121.539 12.9807 121.39 12.5804 121.39 12.1428C121.39 11.6773 121.586 11.1792 121.977 10.6486C122.368 10.1086 122.842 9.65704 123.401 9.29395C123.969 8.92155 124.49 8.73535 124.965 8.73535C125.542 8.73535 126.213 8.80518 126.976 8.94483C127.739 9.08448 128.298 9.23344 128.652 9.39171V12.1009H128.121C127.665 11.3468 127.162 10.7603 126.613 10.3413C126.073 9.92238 125.505 9.7129 124.909 9.7129C124.379 9.7129 123.955 9.88048 123.638 10.2156C123.331 10.5415 123.178 10.9698 123.178 11.5004C123.178 11.8076 123.294 12.0963 123.527 12.3662C123.769 12.6269 124.062 12.8597 124.406 13.0645C124.76 13.2693 125.249 13.5347 125.873 13.8605C126.562 14.205 127.12 14.5122 127.549 14.7822C127.977 15.0429 128.335 15.3501 128.624 15.7039C128.922 16.0484 129.071 16.4394 129.071 16.8769C129.071 17.3424 128.861 17.8452 128.442 18.3852C128.023 18.9158 127.511 19.3674 126.906 19.7398C126.31 20.1029 125.766 20.2844 125.272 20.2844C124.667 20.2844 123.946 20.2146 123.108 20.0749C122.279 19.9353 121.683 19.7863 121.32 19.628V16.9188H121.851C122.326 17.6729 122.866 18.2595 123.471 18.6784C124.076 19.0974 124.7 19.3068 125.342 19.3068C125.724 19.3068 126.064 19.2231 126.362 19.0555C126.659 18.8879 126.888 18.6691 127.046 18.3991C127.204 18.1198 127.283 17.8266 127.283 17.5193Z" fill="#061738"/>
<path d="M141.921 19.9911H137.676V19.5582L138.989 18.5388L137.913 15.9553H133.221L132.076 18.5946L134.534 19.4325L134.254 19.9911H130.009V19.5582L131.322 18.5248L135.274 9.46153L136.726 8.74932L140.804 18.5807L142.201 19.4325L141.921 19.9911ZM135.623 10.4251L133.5 15.3268H137.662L135.623 10.4251Z" fill="#061738"/>
<path d="M149.213 17.5193C149.213 17.2307 149.096 16.9607 148.864 16.7094C148.631 16.458 148.337 16.2299 147.984 16.0251C147.639 15.8109 147.169 15.5503 146.573 15.243C145.866 14.8706 145.298 14.5541 144.87 14.2934C144.441 14.0234 144.074 13.7069 143.766 13.3438C143.468 12.9807 143.319 12.5804 143.319 12.1428C143.319 11.6773 143.515 11.1792 143.906 10.6486C144.297 10.1086 144.772 9.65704 145.33 9.29395C145.898 8.92155 146.42 8.73535 146.894 8.73535C147.472 8.73535 148.142 8.80518 148.905 8.94483C149.669 9.08448 150.227 9.23344 150.581 9.39171V12.1009H150.051C149.594 11.3468 149.092 10.7603 148.542 10.3413C148.002 9.92238 147.434 9.7129 146.839 9.7129C146.308 9.7129 145.884 9.88048 145.568 10.2156C145.261 10.5415 145.107 10.9698 145.107 11.5004C145.107 11.8076 145.223 12.0963 145.456 12.3662C145.698 12.6269 145.991 12.8597 146.336 13.0645C146.69 13.2693 147.178 13.5347 147.802 13.8605C148.491 14.205 149.05 14.5122 149.478 14.7822C149.906 15.0429 150.265 15.3501 150.553 15.7039C150.851 16.0484 151 16.4394 151 16.8769C151 17.3424 150.791 17.8452 150.372 18.3852C149.953 18.9158 149.441 19.3674 148.836 19.7398C148.24 20.1029 147.695 20.2844 147.202 20.2844C146.597 20.2844 145.875 20.2146 145.037 20.0749C144.209 19.9353 143.613 19.7863 143.25 19.628V16.9188H143.78C144.255 17.6729 144.795 18.2595 145.4 18.6784C146.005 19.0974 146.629 19.3068 147.272 19.3068C147.653 19.3068 147.993 19.2231 148.291 19.0555C148.589 18.8879 148.817 18.6691 148.975 18.3991C149.133 18.1198 149.213 17.8266 149.213 17.5193Z" fill="#061738"/>
<path d="M37.6738 26.9866L37.0865 25.8642H36.7929V26.9866H36.0967V23.6714H37.1765C37.868 23.6714 38.3179 24.1971 38.3179 24.7702C38.3179 25.1917 38.1047 25.5564 37.7401 25.7411L38.4694 26.9866H37.6738ZM36.7929 24.344V25.1964H37.1386C37.418 25.1964 37.6075 25.0212 37.6075 24.7702C37.6075 24.5239 37.418 24.344 37.1386 24.344H36.7929Z" fill="#061738"/>
<path d="M43.2235 24.344H41.959V24.9975H42.9156V25.6227H41.959V26.3141H43.2235V26.9866H41.2628V23.6714H43.2235V24.344Z" fill="#061738"/>
<path d="M48.1089 26.9866L47.9147 26.4325H46.7354L46.5365 26.9866H45.774L47.1001 23.6383H47.5405L48.8666 26.9866H48.1089ZM46.9533 25.8121H47.6921L47.3227 24.7702L46.9533 25.8121Z" fill="#061738"/>
<path d="M52.2264 26.3141H53.3298V26.9866H51.5302V23.6714H52.2264V26.3141Z" fill="#061738"/>
<path d="M61.9314 24.344H60.6669V24.9975H61.6236V25.6227H60.6669V26.3141H61.9314V26.9866H59.9707V23.6714H61.9314V24.344Z" fill="#061738"/>
<path d="M65.8215 27.0434C65.3668 27.0434 64.9216 26.8209 64.6612 26.5035L65.0874 25.9731C65.2768 26.1957 65.5705 26.3615 65.8167 26.3615C66.0488 26.3615 66.1956 26.2336 66.1956 26.0489C66.1956 25.8263 66.0251 25.7269 65.6415 25.5564C65.2768 25.3906 65.059 25.2769 64.8932 25.0212C64.808 24.8933 64.7654 24.737 64.7654 24.5476C64.7654 24.0361 65.1963 23.6146 65.8262 23.6146C66.243 23.6146 66.6218 23.8088 66.8729 24.0693L66.475 24.595C66.3045 24.4292 66.063 24.2966 65.8546 24.2966C65.6462 24.2966 65.5042 24.4103 65.5042 24.5807C65.5042 24.7702 65.6747 24.8791 66.0346 25.0354C66.4135 25.2106 66.6313 25.3243 66.8065 25.5848C66.8918 25.7174 66.9344 25.8784 66.9344 26.0726C66.9344 26.6172 66.5129 27.0434 65.8215 27.0434Z" fill="#061738"/>
<path d="M71.6713 23.6714V24.344H70.9183V26.9866H70.2221V24.344H69.4454V23.6714H71.6713Z" fill="#061738"/>
<path d="M76.1222 26.9866L75.928 26.4325H74.7488L74.5499 26.9866H73.7874L75.1134 23.6383H75.5539L76.88 26.9866H76.1222ZM74.9666 25.8121H75.7054L75.336 24.7702L74.9666 25.8121Z" fill="#061738"/>
<path d="M81.2219 23.6714V24.344H80.4688V26.9866H79.7727V24.344H78.996V23.6714H81.2219Z" fill="#061738"/>
<path d="M85.9303 24.344H84.6658V24.9975H85.6224V25.6227H84.6658V26.3141H85.9303V26.9866H83.9696V23.6714H85.9303V24.344Z" fill="#061738"/>
<path d="M99.9061 27.0434C99.4515 27.0434 99.0063 26.8209 98.7458 26.5035L99.172 25.9731C99.3615 26.1957 99.6551 26.3615 99.9014 26.3615C100.133 26.3615 100.28 26.2336 100.28 26.0489C100.28 25.8263 100.11 25.7269 99.7261 25.5564C99.3615 25.3906 99.1436 25.2769 98.9779 25.0212C98.8926 24.8933 98.85 24.737 98.85 24.5476C98.85 24.0361 99.281 23.6146 99.9108 23.6146C100.328 23.6146 100.706 23.8088 100.957 24.0693L100.56 24.595C100.389 24.4292 100.148 24.2966 99.9393 24.2966C99.7309 24.2966 99.5888 24.4103 99.5888 24.5807C99.5888 24.7702 99.7593 24.8791 100.119 25.0354C100.498 25.2106 100.716 25.3243 100.891 25.5848C100.976 25.7174 101.019 25.8784 101.019 26.0726C101.019 26.6172 100.598 27.0434 99.9061 27.0434Z" fill="#061738"/>
<path d="M103.874 23.6714H104.897C105.598 23.6572 106.067 24.2256 106.057 24.7939C106.057 25.419 105.622 25.9068 104.902 25.9068H104.57V26.9866H103.874V23.6714ZM104.57 25.239H104.864C105.148 25.239 105.342 25.0591 105.342 24.7939C105.342 24.5429 105.143 24.344 104.864 24.344H104.57V25.239Z" fill="#061738"/>
<path d="M110.568 26.9866L110.373 26.4325H109.194L108.995 26.9866H108.233L109.559 23.6383H109.999L111.325 26.9866H110.568ZM109.412 25.8121H110.151L109.781 24.7702L109.412 25.8121Z" fill="#061738"/>
<path d="M113.989 26.9866V23.6714H114.685V26.9866H113.989Z" fill="#061738"/>
<path d="M119.829 23.6714H120.521V27.0292H120.151L118.404 25.0354V26.9866H117.707V23.6383H118.077L119.829 25.6842V23.6714Z" fill="#061738"/>
<path fill-rule="evenodd" clip-rule="evenodd" d="M12.5661 0.00885382C18.9776 0.169418 24.1253 5.35672 24.1253 11.7325V32.9984L24.1237 33.0626C24.091 33.7024 23.5719 34.2153 22.9246 34.2478L22.8594 34.2496H1.66017L1.59496 34.2478C0.947683 34.2153 0.428595 33.7024 0.395832 33.0626L0.394287 32.9984V11.7325C0.394287 5.25551 5.70665 0.00488281 12.2598 0.00488281L12.5661 0.00885382ZM17.225 32.949H22.8096V14.8146C22.5767 14.8013 22.3469 14.7765 22.1208 14.7407L17.225 32.949ZM9.45822 32.949H16.0905L21.0555 14.4835C20.8152 14.4046 20.5809 14.3132 20.3533 14.2095L9.45822 32.949ZM1.70993 30.1598V32.949H8.19357L19.3977 13.678C19.1839 13.5356 18.9787 13.3815 18.783 13.2167L1.70993 30.1598ZM1.70993 20.9287V28.6239L18.0076 12.4503C17.8428 12.2591 17.6885 12.0588 17.5458 11.8501L1.70993 20.9287ZM1.70993 14.2241V19.676L17.0065 10.9062C16.9016 10.6821 16.8087 10.4513 16.7287 10.2146L1.70993 14.2241ZM19.2781 3.94809C18.1651 4.98446 17.4717 6.45593 17.4751 8.08649C17.4813 11.0799 19.8343 13.5254 22.8096 13.7281V11.7325C22.8096 8.63741 21.4448 5.85779 19.2781 3.94809ZM2.24459 8.44816C1.89811 9.48083 1.70993 10.5849 1.70993 11.7325V13.1013L16.4669 9.16141C16.4271 8.91828 16.4 8.67087 16.3872 8.41975L2.24459 8.44816ZM5.50511 3.72266C4.3099 4.70836 3.33885 5.95045 2.67819 7.36346L16.419 7.33567C16.4457 7.09329 16.486 6.85488 16.538 6.62088L5.50511 3.72266ZM12.2598 1.30523C10.1975 1.30523 8.27366 1.8905 6.6483 2.90158L16.8591 5.58384C17.2123 4.70522 17.7463 3.91689 18.4164 3.26447C16.6838 2.03168 14.5577 1.30524 12.2598 1.30523Z" fill="#061738"/>
</svg>
