<svg fill="none" height="44" viewBox="0 0 200 44" width="200" xmlns="http://www.w3.org/2000/svg"><g fill="#020817"><path d="m198.904 10.8557-3.968.2442c-.068-.3392-.214-.6444-.438-.9157-.223-.2781-.519-.49853-.885-.66132-.359-.16956-.79-.25435-1.292-.25435-.671 0-1.238.14244-1.699.42731-.461.27809-.692.65116-.692 1.11916 0 .373.149.6884.448.9462.298.2577.81.4646 1.536.6206l2.829.5697c1.519.312 2.652.8139 3.398 1.5058.746.6918 1.119 1.6007 1.119 2.7266 0 1.0242-.302 1.9229-.906 2.6961-.597.7732-1.417 1.3769-2.462 1.811-1.038.4273-2.235.641-3.591.641-2.069 0-3.717-.4307-4.945-1.2921-1.221-.8682-1.936-2.0484-2.147-3.5406l4.263-.2238c.129.6308.441 1.1123.936 1.4447.496.3256 1.13.4883 1.903.4883.76 0 1.37-.1458 1.831-.4374.468-.2985.706-.6817.712-1.1497-.006-.3934-.173-.7156-.498-.9665-.326-.2578-.828-.4545-1.506-.5901l-2.706-.5393c-1.526-.3052-2.662-.8342-3.408-1.5871-.74-.7529-1.109-1.7126-1.109-2.8792 0-1.0039.271-1.86867.814-2.59441.549-.72575 1.319-1.28532 2.309-1.67871.997-.3934 2.164-.5901 3.5-.5901 1.974 0 3.527.41714 4.66 1.25141 1.139.83426 1.804 1.97036 1.994 3.40831z"/><path d="m176.65 22.332c-1.607 0-2.991-.3256-4.151-.9767-1.153-.658-2.041-1.5872-2.665-2.7877-.624-1.2073-.936-2.6351-.936-4.2833 0-1.6075.312-3.0183.936-4.2324.624-1.21407 1.502-2.16025 2.635-2.83852 1.139-.67826 2.475-1.0174 4.008-1.0174 1.031 0 1.991.16618 2.879.49853.896.32557 1.676.81731 2.34 1.47523.672.65792 1.194 1.48541 1.567 2.48246.373.9903.56 2.1501.56 3.4795v1.1904h-13.196v-2.686h9.116c0-.624-.136-1.1768-.407-1.6583-.271-.4816-.648-.858-1.129-1.12935-.475-.27809-1.028-.41713-1.659-.41713-.657 0-1.241.15261-1.749.45783-.502.29845-.896.70205-1.181 1.21075-.285.5019-.43 1.0614-.437 1.6787v2.5536c0 .7733.142 1.4414.427 2.0043.292.563.702.9971 1.231 1.3023s1.157.4578 1.882.4578c.482 0 .923-.0678 1.323-.2035.4-.1356.743-.3391 1.028-.6104.284-.2713.502-.6037.651-.997l4.008.2645c-.203.9631-.62 1.8042-1.251 2.5231-.624.7122-1.431 1.2684-2.422 1.6686-.983.3934-2.119.5901-3.408.5901z"/><path d="m162.472 22.0267v-15.62725h4.335v15.62725zm2.178-17.6417c-.645 0-1.197-.21366-1.659-.64097-.454-.43409-.681-.95296-.681-1.55662 0-.59687.227-1.10896.681-1.536272.462-.434092 1.014-.651138 1.659-.651138.644 0 1.193.217046 1.648.651138.461.427312.692.939402.692 1.536272 0 .60366-.231 1.12253-.692 1.55662-.455.42731-1.004.64097-1.648.64097z"/><path d="m160.399 6.39943v3.25568h-9.411v-3.25568zm-7.274-3.74403h4.334v14.5692c0 .4002.061.7122.183.936.122.217.292.3696.509.4578.223.0882.481.1323.773.1323.203 0 .407-.017.61-.0509.204-.0407.36-.0712.468-.0916l.682 3.2252c-.217.0678-.522.1458-.916.234-.393.095-.871.1526-1.434.173-1.045.0407-1.96-.0984-2.747-.4172-.78-.3188-1.387-.8139-1.821-1.4854s-.648-1.5193-.641-2.5435z"/><path d="m140.331 22.0268v-15.62731h4.201v2.72663h.163c.285-.96992.763-1.70245 1.435-2.19758.671-.50192 1.444-.75288 2.319-.75288.217 0 .451.01356.702.04069.251.02714.472.06444.662.11192v3.84573c-.204-.061-.485-.1153-.845-.1627-.359-.04752-.688-.07126-.987-.07126-.637 0-1.207.13906-1.709.41716-.495.2713-.888.6511-1.18 1.1395-.285.4883-.427 1.0513-.427 1.6888v8.8413z"/><path d="m131.079 22.332c-1.607 0-2.991-.3256-4.151-.9767-1.153-.658-2.041-1.5872-2.665-2.7877-.624-1.2073-.936-2.6351-.936-4.2833 0-1.6075.312-3.0183.936-4.2324.624-1.21407 1.502-2.16025 2.635-2.83852 1.139-.67826 2.476-1.0174 4.009-1.0174 1.031 0 1.99.16618 2.879.49853.895.32557 1.675.81731 2.34 1.47523.671.65792 1.194 1.48541 1.567 2.48246.373.9903.559 2.1501.559 3.4795v1.1904h-13.196v-2.686h9.116c0-.624-.135-1.1768-.407-1.6583-.271-.4816-.647-.858-1.129-1.12935-.475-.27809-1.027-.41713-1.658-.41713-.658 0-1.241.15261-1.75.45783-.502.29845-.895.70205-1.18 1.21075-.285.5019-.431 1.0614-.438 1.6787v2.5536c0 .7733.143 1.4414.427 2.0043.292.563.702.9971 1.232 1.3023.529.3052 1.156.4578 1.882.4578.481 0 .922-.0678 1.322-.2035.401-.1356.743-.3391 1.028-.6104s.502-.6037.651-.997l4.009.2645c-.204.9631-.621 1.8042-1.252 2.5231-.624.7122-1.431 1.2684-2.421 1.6686-.984.3934-2.12.5901-3.409.5901z"/><path d="m106.578 27.887v-21.48754h4.273v2.6249h.193c.19-.42053.465-.84784.824-1.28193.366-.44087.841-.80714 1.424-1.09879.591-.29844 1.323-.44766 2.198-.44766 1.14 0 2.191.29844 3.154.89532.963.59009 1.733 1.48201 2.31 2.67576.576 1.18694.864 2.67574.864 4.46634 0 1.7432-.281 3.215-.844 4.4156-.556 1.1937-1.316 2.0992-2.279 2.7164-.956.6105-2.028.9157-3.215.9157-.841 0-1.557-.1391-2.147-.4171-.583-.2781-1.061-.6274-1.434-1.048-.373-.4273-.658-.858-.855-1.2921h-.132v8.3631zm4.242-13.6739c0 .9292.129 1.7398.387 2.4316s.631 1.231 1.119 1.6177c.488.3798 1.082.5697 1.78.5697.706 0 1.303-.1933 1.791-.5799.488-.3934.858-.936 1.109-1.6279.258-.6986.387-1.5023.387-2.4112 0-.9021-.126-1.6957-.377-2.3807-.251-.6851-.62-1.2209-1.109-1.6075-.488-.38662-1.088-.57993-1.801-.57993-.705 0-1.302.18652-1.79.55953-.482.3731-.851.9021-1.109 1.5872-.258.685-.387 1.4922-.387 2.4214z"/><path d="m96.8179 22.332c-1.5804 0-2.9471-.3358-4.1001-1.0073-1.1463-.6782-2.0314-1.621-2.6555-2.8283-.624-1.2141-.936-2.6215-.936-4.2223 0-1.6142.312-3.025.936-4.2323.6241-1.21414 1.5092-2.15693 2.6555-2.82842 1.153-.67826 2.5197-1.0174 4.1001-1.0174s2.9437.33914 4.0901 1.0174c1.153.67149 2.041 1.61428 2.665 2.82842.624 1.2073.936 2.6181.936 4.2323 0 1.6008-.312 3.0082-.936 4.2223-.624 1.2073-1.512 2.1501-2.665 2.8283-1.1464.6715-2.5097 1.0073-4.0901 1.0073zm.0203-3.3575c.719 0 1.3193-.2034 1.8008-.6104.4816-.4137.8445-.9767 1.0887-1.6889.2509-.7122.3763-1.5227.3763-2.4316s-.1254-1.7194-.3763-2.4316c-.2442-.7121-.6071-1.2751-1.0887-1.6889-.4815-.41369-1.0818-.62057-1.8008-.62057-.7257 0-1.3361.20688-1.8313.62057-.4883.4138-.858.9768-1.109 1.6889-.2441.7122-.3662 1.5227-.3662 2.4316s.1221 1.7194.3662 2.4316c.251.7122.6207 1.2752 1.109 1.6889.4952.407 1.1056.6104 1.8313.6104z"/><path d="m79.5116 22.0268v-15.62731h4.2019v2.72663h.1627c.2849-.96992.7631-1.70245 1.4346-2.19758.6715-.50192 1.4447-.75288 2.3196-.75288.2171 0 .4511.01356.7021.04069.2509.02714.4714.06444.6613.11192v3.84573c-.2035-.061-.485-.1153-.8445-.1627-.3595-.04752-.6884-.07126-.9869-.07126-.6375 0-1.2073.13906-1.7092.41716-.4951.2713-.8885.6511-1.1802 1.1395-.2848.4883-.4273 1.0513-.4273 1.6888v8.8413z"/><path d="m61.7932 22.0267v-20.83633h8.2206c1.5804 0 2.9267.30183 4.0391.90549 1.1123.59687 1.9602 1.42775 2.5435 2.49263.5901 1.05809.8851 2.27897.8851 3.66264 0 1.38366-.2984 2.60457-.8953 3.66267s-1.4616 1.8822-2.5944 2.4723c-1.1259.59-2.4892.8851-4.0899.8851h-5.2396v-3.5304h4.5274c.8478 0 1.5465-.1458 2.0959-.4375.5561-.2984.9699-.7088 1.2412-1.231.2781-.52907.4171-1.13612.4171-1.82117 0-.69183-.139-1.29549-.4171-1.81097-.2713-.52227-.6851-.92584-1.2412-1.21071-.5562-.29165-1.2616-.43748-2.1162-.43748h-2.9708v17.23473z"/><path d="m53.9332 6.39948v3.25568h-9.645v-3.25568zm-7.4372 15.62732v-16.75663c0-1.13271.2204-2.07211.6613-2.8182.4476-.7461 1.0581-1.30567 1.8313-1.678716.7732-.373047 1.6516-.55957 2.6351-.55957.6647 0 1.2717.05087 1.8211.152611.5562.10174.9699.193306 1.2412.274698l-.7732 3.255687c-.1696-.05427-.3798-.10514-.6308-.15262-.2441-.04747-.4951-.07121-.7528-.07121-.6376 0-1.0819.14922-1.3328.44765-.251.29166-.3765.70201-.3765 1.23106v16.67524z"/><path d="m42.8075 1.19037v20.83633h-4.3341v-20.83633z"/><path d="m28.7136 22.332c-1.5803 0-2.947-.3358-4.1001-1.0073-1.1463-.6782-2.0314-1.621-2.6554-2.8283-.624-1.2141-.936-2.6215-.936-4.2223 0-1.6142.312-3.025.936-4.2323.624-1.21414 1.5091-2.15693 2.6554-2.82842 1.1531-.67826 2.5198-1.0174 4.1001-1.0174 1.5804 0 2.9437.33914 4.09 1.0174 1.153.67149 2.0416 1.61428 2.6656 2.82842.624 1.2073.936 2.6181.936 4.2323 0 1.6008-.312 3.0082-.936 4.2223-.624 1.2073-1.5126 2.1501-2.6656 2.8283-1.1463.6715-2.5096 1.0073-4.09 1.0073zm.0204-3.3575c.719 0 1.3192-.2034 1.8008-.6104.4816-.4137.8444-.9767 1.0886-1.6889.251-.7122.3764-1.5227.3764-2.4316s-.1254-1.7194-.3764-2.4316c-.2442-.7121-.607-1.2751-1.0886-1.6889-.4816-.41369-1.0818-.62057-1.8008-.62057-.7258 0-1.3362.20688-1.8313.62057-.4884.4138-.858.9768-1.109 1.6889-.2442.7122-.3663 1.5227-.3663 2.4316s.1221 1.7194.3663 2.4316c.251.7122.6206 1.2752 1.109 1.6889.4951.407 1.1055.6104 1.8313.6104z"/><path d="m14.5053 7.92558c-.1424-.49513-.3425-.93261-.6002-1.31244-.2578-.38662-.5732-.71218-.9462-.97671-.3663-.27131-.7868-.47818-1.2616-.62061-.468-.14244-.9869-.21366-1.5566-.21366-1.06491 0-2.00092.26453-2.80806.79357-.80035.52905-1.42436 1.29889-1.87201 2.3095-.44766 1.00384-.67149 2.23147-.67149 3.68297s.22044 2.686.66131 3.7034c.44088 1.0174 1.06488 1.794 1.87202 2.3298.80714.5291 1.7601.7936 2.85893.7936.997 0 1.8482-.1764 2.5536-.5291.7122-.3594 1.2548-.8648 1.6279-1.5159.3798-.6511.5697-1.421.5697-2.3095l.8953.1323h-5.3718v-3.3168h8.7191v2.6249c0 1.8314-.3866 3.4049-1.1598 4.7208-.7733 1.309-1.8382 2.3197-3.1947 3.0318-1.3565.7054-2.9098 1.0581-4.6597 1.0581-1.95339 0-3.66941-.4307-5.14803-1.2921-1.47862-.8682-2.63168-2.0992-3.45916-3.6931-.820704-1.6007-1.231056-3.4999-1.231056-5.6975 0-1.68886.244176-3.19462.732526-4.51724.49514-1.3294 1.18697-2.45532 2.0755-3.37777.88853-.92244 1.92289-1.62445 3.10307-2.10602 1.18019-.48157 2.45872-.722352 3.83565-.722352 1.1801 0 2.2789.172962 3.2963.518872 1.0174.33914 1.9195.82071 2.7063 1.44471.7936.62401 1.4413 1.36671 1.9433 2.22811.5019.85461.824 1.79741.9665 2.82837z"/></g><path d="m117.509 40.2247c-.693 0-1.303-.1155-1.831-.3465s-.952-.5555-1.271-.9735c-.308-.418-.495-.9075-.561-1.4685h1.667c.066.264.181.506.346.726s.385.396.66.528.605.198.99.198c.363 0 .66-.0495.891-.1485.231-.11.402-.253.512-.429.121-.187.181-.3795.181-.5775 0-.308-.077-.539-.231-.693-.143-.165-.363-.2915-.66-.3795-.286-.099-.638-.187-1.056-.264-.363-.077-.726-.1705-1.089-.2805-.352-.11-.671-.253-.957-.429-.275-.176-.5-.396-.676-.66-.165-.275-.248-.605-.248-.99 0-.473.127-.8965.38-1.2705.253-.385.61-.682 1.072-.891.473-.22 1.029-.33 1.667-.33.913 0 1.65.22 2.211.66.572.44.902 1.0615.99 1.8645h-1.584c-.055-.374-.226-.66-.512-.858-.275-.209-.649-.3135-1.122-.3135s-.836.0935-1.089.2805-.379.429-.379.726c0 .198.071.374.214.528.154.154.369.286.644.396.286.099.627.1925 1.023.2805.572.11 1.089.2475 1.551.4125s.83.407 1.105.726c.286.319.424.7755.413 1.3695.011.506-.121.957-.396 1.353-.264.396-.638.704-1.122.924s-1.062.33-1.733.33z" fill="#9ca3af"/><path d="m107.863 40.2247c-.682 0-1.249-.1155-1.7-.3465s-.786-.539-1.006-.924-.33-.8085-.33-1.2705c0-.539.137-1.001.412-1.386.286-.396.693-.6985 1.221-.9075.539-.209 1.177-.3135 1.914-.3135h2.162c0-.473-.072-.869-.215-1.188s-.357-.5555-.643-.7095c-.286-.165-.638-.2475-1.056-.2475-.495 0-.924.121-1.287.363-.352.231-.572.583-.66 1.056h-1.65c.066-.594.264-1.0945.594-1.5015.341-.418.775-.737 1.303-.957.528-.231 1.095-.3465 1.7-.3465.77 0 1.419.1375 1.947.4125s.929.6655 1.204 1.1715c.275.495.413 1.089.413 1.782v5.115h-1.436l-.132-1.4025c-.121.22-.264.429-.429.627s-.363.3685-.594.5115c-.22.143-.478.253-.775.33-.286.088-.605.132-.957.132zm.313-1.3365c.352 0 .671-.0715.957-.2145s.528-.3355.726-.5775c.209-.253.363-.5335.462-.8415.11-.308.171-.6325.182-.9735v-.033h-1.964c-.473 0-.858.0605-1.155.1815-.286.11-.495.264-.627.462s-.198.429-.198.693.061.495.182.693c.132.198.319.352.561.462.242.099.533.1485.874.1485z" fill="#9ca3af"/><path d="m99.8973 40.2247c-.693 0-1.3035-.1155-1.8315-.3465s-.9515-.5555-1.2705-.9735c-.308-.418-.495-.9075-.561-1.4685h1.6665c.066.264.1815.506.3465.726s.385.396.66.528.605.198.99.198c.3627 0 .6597-.0495.8907-.1485.231-.11.402-.253.512-.429.121-.187.181-.3795.181-.5775 0-.308-.077-.539-.231-.693-.143-.165-.363-.2915-.66-.3795-.286-.099-.6377-.187-1.0557-.264-.363-.077-.726-.1705-1.089-.2805-.352-.11-.671-.253-.957-.429-.275-.176-.5005-.396-.6765-.66-.165-.275-.2475-.605-.2475-.99 0-.473.1265-.8965.3795-1.2705.253-.385.6105-.682 1.0725-.891.473-.22 1.0285-.33 1.6665-.33.9132 0 1.6502.22 2.2112.66.572.44.902 1.0615.99 1.8645h-1.584c-.055-.374-.226-.66-.512-.858-.275-.209-.649-.3135-1.1217-.3135-.473 0-.836.0935-1.089.2805s-.3795.429-.3795.726c0 .198.0715.374.2145.528.154.154.3685.286.6435.396.286.099.627.1925 1.0232.2805.572.11 1.089.2475 1.551.4125s.83.407 1.105.726c.286.319.424.7755.413 1.3695.011.506-.121.957-.396 1.353-.264.396-.638.704-1.122.924s-1.062.33-1.7327.33z" fill="#9ca3af"/><path d="m90.2507 40.2247c-.682 0-1.2485-.1155-1.6995-.3465s-.7865-.539-1.0065-.924-.33-.8085-.33-1.2705c0-.539.1375-1.001.4125-1.386.286-.396.693-.6985 1.221-.9075.539-.209 1.177-.3135 1.914-.3135h2.1615c0-.473-.0715-.869-.2145-1.188s-.3575-.5555-.6435-.7095c-.286-.165-.638-.2475-1.056-.2475-.495 0-.924.121-1.287.363-.352.231-.572.583-.66 1.056h-1.65c.066-.594.264-1.0945.594-1.5015.341-.418.7755-.737 1.3035-.957.528-.231 1.0945-.3465 1.6995-.3465.77 0 1.419.1375 1.947.4125s.9295.6655 1.2045 1.1715c.275.495.4125 1.089.4125 1.782v5.115h-1.4355l-.132-1.4025c-.121.22-.264.429-.429.627s-.363.3685-.594.5115c-.22.143-.4785.253-.7755.33-.286.088-.605.132-.957.132zm.3135-1.3365c.352 0 .671-.0715.957-.2145s.528-.3355.726-.5775c.209-.253.363-.5335.462-.8415.11-.308.1705-.6325.1815-.9735v-.033h-1.9635c-.473 0-.858.0605-1.155.1815-.286.11-.495.264-.627.462s-.198.429-.198.693.0605.495.1815.693c.132.198.319.352.561.462.242.099.5335.1485.8745.1485z" fill="#9ca3af"/><path d="m80.7197 40.2247c-1.133 0-2.112-.2475-2.937-.7425-.825-.506-1.463-1.2045-1.914-2.0955-.44-.902-.66-1.947-.66-3.135 0-1.177.22-2.2165.66-3.1185.451-.902 1.089-1.6005 1.914-2.0955.825-.506 1.804-.759 2.937-.759 1.342 0 2.4365.3245 3.2835.9735s1.386 1.562 1.617 2.739h-1.815c-.165-.682-.506-1.2265-1.023-1.6335-.506-.407-1.199-.6105-2.079-.6105-.77 0-1.4465.1815-2.0295.5445-.572.363-1.012.88-1.32 1.551s-.462 1.474-.462 2.409.154 1.7435.462 2.4255c.308.671.748 1.188 1.32 1.551.583.352 1.2595.528 2.0295.528.88 0 1.573-.1925 2.079-.5775.506-.396.847-.9295 1.023-1.6005h1.815c-.231 1.144-.77 2.0405-1.617 2.6895-.847.638-1.9415.957-3.2835.957z" fill="#9ca3af"/><path d="m62.8642 43.6567 2.0295-4.554h-.495l-3.2835-7.359h1.7985l2.607 6.006 2.6235-6.006h1.7325l-5.28 11.913z" fill="#9ca3af"/><path d="m52.481 40.0267v-8.283h1.485l.099 1.419c.264-.495.638-.8855 1.122-1.1715.484-.297 1.045-.4455 1.683-.4455.66 0 1.2265.1375 1.6995.4125.473.264.836.6655 1.089 1.2045.264.528.396 1.1935.396 1.9965v4.8675h-1.65v-4.7025c0-.781-.1705-1.3695-.5115-1.7655-.341-.407-.8305-.6105-1.4685-.6105-.44 0-.836.11-1.188.33-.341.209-.6105.5115-.8085.9075s-.297.88-.297 1.452v4.389z" fill="#9ca3af"/><path d="m42.7969 40.0267v-8.283h1.485l.099 1.419c.264-.495.638-.8855 1.122-1.1715.484-.297 1.045-.4455 1.683-.4455.66 0 1.2265.1375 1.6995.4125.473.264.836.6655 1.089 1.2045.264.528.396 1.1935.396 1.9965v4.8675h-1.65v-4.7025c0-.781-.1705-1.3695-.5115-1.7655-.341-.407-.8305-.6105-1.4685-.6105-.44 0-.836.11-1.188.33-.341.209-.6105.5115-.8085.9075s-.297.88-.297 1.452v4.389z" fill="#9ca3af"/><path d="m36.1649 40.2247c-.649 0-1.2155-.132-1.6995-.396-.473-.264-.836-.66-1.089-1.188-.253-.539-.3795-1.21-.3795-2.013v-4.884h1.65v4.7025c0 .792.165 1.386.495 1.782.341.396.8305.594 1.4685.594.44 0 .8305-.1045 1.1715-.3135.352-.209.627-.5115.825-.9075.198-.407.297-.8965.297-1.4685v-4.389h1.65v8.283h-1.4685l-.1155-1.419c-.253.495-.627.891-1.122 1.188-.484.286-1.045.429-1.683.429z" fill="#9ca3af"/><path d="m27.2894 40.2247c-.836 0-1.573-.1485-2.211-.4455-.638-.308-1.133-.737-1.485-1.287s-.528-1.1935-.528-1.9305h1.7325c0 .418.099.803.297 1.155.198.341.4785.616.8415.825.374.198.825.297 1.353.297.462 0 .858-.077 1.188-.231.341-.154.5995-.363.7755-.627.176-.275.264-.5885.264-.9405 0-.407-.0935-.7425-.2805-1.0065-.176-.264-.4235-.4785-.7425-.6435-.319-.176-.682-.33-1.089-.462s-.8415-.275-1.3035-.429c-.902-.308-1.5785-.693-2.0295-1.155-.44-.473-.66-1.089-.66-1.848 0-.649.1485-1.21.4455-1.683.308-.484.7425-.858 1.3035-1.122.561-.275 1.2155-.4125 1.9635-.4125.759 0 1.4135.1375 1.9635.4125.561.275 1.001.6545 1.32 1.1385s.484 1.0505.495 1.6995h-1.749c0-.297-.077-.5885-.231-.8745s-.385-.517-.693-.693c-.308-.187-.6875-.2805-1.1385-.2805-.374-.011-.7095.0495-1.0065.1815s-.5335.3245-.7095.5775c-.165.253-.2475.5555-.2475.9075s.077.638.231.858c.154.209.3685.3905.6435.5445.286.154.6215.297 1.0065.429.385.121.8085.2585 1.2705.4125.561.187 1.067.418 1.518.693.451.264.803.6105 1.056 1.0395.264.418.396.957.396 1.617 0 .572-.1485 1.1055-.4455 1.6005s-.737.902-1.32 1.221c-.583.308-1.3145.462-2.1945.462z" fill="#9ca3af"/><path d="m10.7539 43.6567 2.0295-4.554h-.495l-3.28352-7.359h1.79852l2.607 6.006 2.6235-6.006h1.7325l-5.28 11.913z" fill="#9ca3af"/><path d="m4.5375 40.2247c-.451 0-.858-.066-1.221-.198-.363-.121-.6875-.2915-.9735-.5115-.275-.22-.506-.473-.693-.759l-.165 1.2705h-1.485v-11.88h1.65v4.9005c.264-.407.6325-.759 1.1055-1.056.484-.297 1.078-.4455 1.782-.4455.803 0 1.5015.1925 2.0955.5775.605.374 1.078.891 1.419 1.551.341.649.5115 1.3915.5115 2.2275 0 .825-.1705 1.5675-.5115 2.2275-.341.649-.814 1.1605-1.419 1.5345s-1.3035.561-2.0955.561zm-.264-1.4355c.506 0 .957-.121 1.353-.363s.704-.5775.924-1.0065c.22-.44.33-.9515.33-1.5345 0-.572-.11-1.0725-.33-1.5015-.22-.44-.528-.781-.924-1.023-.396-.253-.847-.3795-1.353-.3795-.517 0-.9735.1265-1.3695.3795-.396.242-.704.583-.924 1.023-.209.429-.3135.9295-.3135 1.5015 0 .583.1045 1.0945.3135 1.5345.22.429.528.7645.924 1.0065s.8525.363 1.3695.363z" fill="#9ca3af"/></svg>